# xmcd CD database file
#
# Track frame offsets:
#	150
#	19942
#	39624
#	58532
#	72598
#	81332
#	91352
#	112276
#	129022
#
# Disc length: 1951 seconds
#
# Revision: 0
# Processed by: cddbd v1.5.2PL0 Copyright (c) Steve Scherf et al.
# Submitted via: CDex 1.70beta2
#
DISCID=7b079d09
DTITLE=富永TOMY弘明 - 富永TOMY弘明
DYEAR=2013
DGENRE=Blues
TTITLE0=ジョジョ～その血の運命～/富永TOMMY弘明
TTITLE1=Gravity/m.o.e.v
TTITLE2=羽ばたけ楽天イーグルス/狗鷲合唱団
TTITLE3=Dangerous Fight!/TOMMY
TTITLE4=FNS地球特捜隊ダイバスター/TOMMY
TTITLE5=ゆけ! ダイバスター/TOMMY
TTITLE6=Nice Vibration/BETCHIN'
TTITLE7=Kind Of The Woman/BLUFF
TTITLE8=証～AKASHI～/富永TOMMY弘明 
EXTD=YEAR: 2013
EXTT0=
EXTT1=
EXTT2=
EXTT3=
EXTT4=
EXTT5=
EXTT6=
EXTT7=
EXTT8=
PLAYORDER=
